<svg width="1024" height="1024" viewBox="0 0 1024 1024" fill="none" xmlns="http://www.w3.org/2000/svg">
<path fill-rule="evenodd" clip-rule="evenodd" d="M580.815 0C945.777 0.000312652 1024 78.223 1024 443.185V580.815C1024 945.777 945.777 1024 580.815 1024H443.185C78.223 1024 0.000312573 945.777 0 580.815V443.185C0.000312652 78.223 78.223 0.000312573 443.185 0H580.815ZM457.79 87.04C156.694 87.04 92.16 151.574 92.16 452.67V566.21C92.16 867.306 156.694 931.84 457.79 931.84H571.33C872.426 931.84 936.96 867.306 936.96 566.21V452.67C936.96 151.574 872.426 87.04 571.33 87.04H457.79Z" fill="#34CB36"/>
<path fill-rule="evenodd" clip-rule="evenodd" d="M512 204.8C681.662 204.8 819.2 342.338 819.2 512C819.2 681.662 681.662 819.2 512 819.2C342.338 819.2 204.8 681.662 204.8 512C204.8 342.338 342.338 204.8 512 204.8ZM569.62 360.52C549.826 307.03 474.174 307.03 454.38 360.52L438.83 402.535C432.607 419.35 419.35 432.607 402.535 438.83L360.52 454.38C307.03 474.174 307.03 549.826 360.52 569.62L402.535 585.17C419.35 591.393 432.607 604.65 438.83 621.465L454.38 663.48C474.174 716.97 549.826 716.97 569.62 663.48L585.17 621.465C591.393 604.65 604.65 591.393 621.465 585.17L663.48 569.62C716.97 549.826 716.97 474.174 663.48 454.38L621.465 438.83C604.65 432.607 591.393 419.35 585.17 402.535L569.62 360.52Z" fill="#34CB36"/>
</svg>
