<svg width="45" height="44" viewBox="0 0 45 44" fill="none" xmlns="http://www.w3.org/2000/svg">
<mask id="mask0_339_176" style="mask-type:alpha" maskUnits="userSpaceOnUse" x="0" y="0" width="45" height="44">
<path d="M20.4077 10.018C21.1858 7.99264 24.0513 7.99263 24.8294 10.018L27.4416 16.8176C27.6894 17.4626 28.2065 17.9672 28.8574 18.1992L35.6617 20.6243C37.7594 21.372 37.7594 24.3386 35.6617 25.0862L28.8574 27.5114C28.2065 27.7433 27.6894 28.248 27.4416 28.893L24.8294 35.6925C24.0513 37.7179 21.1858 37.7179 20.4077 35.6925L17.7955 28.893C17.5477 28.248 17.0306 27.7433 16.3797 27.5114L9.57539 25.0862C7.47769 24.3386 7.47769 21.372 9.5754 20.6243L16.3797 18.1992C17.0306 17.9672 17.5477 17.4626 17.7955 16.8176L20.4077 10.018Z" fill="white"/>
<rect x="1.18421" y="1.18421" width="42.6316" height="40.7368" rx="10.6579" stroke="white" stroke-width="2.36842"/>
</mask>
<g mask="url(#mask0_339_176)">
<rect width="45" height="43.1053" fill="#34CB36"/>
</g>
</svg>
