<svg width="32" height="32" viewBox="0 0 32 32" fill="none" xmlns="http://www.w3.org/2000/svg">
<path d="M7.79999 22.8C8.93332 21.9333 10.2 21.25 11.6 20.75C13 20.25 14.4667 20 16 20C17.5333 20 19 20.25 20.4 20.75C21.8 21.25 23.0667 21.9333 24.2 22.8C24.9778 21.8888 25.5833 20.8555 26.0167 19.7C26.45 18.5444 26.6667 17.3111 26.6667 16C26.6667 13.0444 25.6278 10.5277 23.55 8.44996C21.4722 6.37218 18.9555 5.33329 16 5.33329C13.0444 5.33329 10.5278 6.37218 8.44999 8.44996C6.37221 10.5277 5.33332 13.0444 5.33332 16C5.33332 17.3111 5.54999 18.5444 5.98332 19.7C6.41666 20.8555 7.02221 21.8888 7.79999 22.8ZM16 17.3333C14.6889 17.3333 13.5833 16.8833 12.6833 15.9833C11.7833 15.0833 11.3333 13.9777 11.3333 12.6666C11.3333 11.3555 11.7833 10.25 12.6833 9.34996C13.5833 8.44996 14.6889 7.99996 16 7.99996C17.3111 7.99996 18.4167 8.44996 19.3167 9.34996C20.2167 10.25 20.6667 11.3555 20.6667 12.6666C20.6667 13.9777 20.2167 15.0833 19.3167 15.9833C18.4167 16.8833 17.3111 17.3333 16 17.3333ZM16 29.3333C14.1555 29.3333 12.4222 28.9833 10.8 28.2833C9.17777 27.5833 7.76666 26.6333 6.56666 25.4333C5.36666 24.2333 4.41666 22.8222 3.71666 21.2C3.01666 19.5777 2.66666 17.8444 2.66666 16C2.66666 14.1555 3.01666 12.4222 3.71666 10.8C4.41666 9.17774 5.36666 7.76663 6.56666 6.56663C7.76666 5.36663 9.17777 4.41663 10.8 3.71663C12.4222 3.01663 14.1555 2.66663 16 2.66663C17.8444 2.66663 19.5778 3.01663 21.2 3.71663C22.8222 4.41663 24.2333 5.36663 25.4333 6.56663C26.6333 7.76663 27.5833 9.17774 28.2833 10.8C28.9833 12.4222 29.3333 14.1555 29.3333 16C29.3333 17.8444 28.9833 19.5777 28.2833 21.2C27.5833 22.8222 26.6333 24.2333 25.4333 25.4333C24.2333 26.6333 22.8222 27.5833 21.2 28.2833C19.5778 28.9833 17.8444 29.3333 16 29.3333Z" fill="white"/>
</svg>
