<svg width="200" height="200" viewBox="0 0 200 200" fill="none" xmlns="http://www.w3.org/2000/svg">
<path fill-rule="evenodd" clip-rule="evenodd" d="M113.44 0C184.722 6.10648e-05 200 15.2779 200 86.5596V113.44C200 184.722 184.722 200 113.44 200H86.5596C15.2779 200 6.10494e-05 184.722 0 113.44V86.5596C6.10648e-05 15.2779 15.2779 6.10494e-05 86.5596 0H113.44ZM89.4121 17C30.6043 17 18 29.6043 18 88.4121V110.588C18 169.396 30.6043 182 89.4121 182H111.588C170.396 182 183 169.396 183 110.588V88.4121C183 29.6043 170.396 17 111.588 17H89.4121Z" fill="currentColor"/>
<path fill-rule="evenodd" clip-rule="evenodd" d="M100 40C133.137 40 160 66.8629 160 100C160 133.137 133.137 160 100 160C66.8629 160 40 133.137 40 100C40 66.8629 66.8629 40 100 40ZM111.254 70.4141C107.388 59.9668 92.612 59.9668 88.7461 70.4141L85.709 78.6201C84.4935 81.9043 81.9043 84.4935 78.6201 85.709L70.4141 88.7461C59.9668 92.612 59.9668 107.388 70.4141 111.254L78.6201 114.291C81.9043 115.506 84.4935 118.096 85.709 121.38L88.7461 129.586C92.612 140.033 107.388 140.033 111.254 129.586L114.291 121.38C115.506 118.096 118.096 115.506 121.38 114.291L129.586 111.254C140.033 107.388 140.033 92.612 129.586 88.7461L121.38 85.709C118.096 84.4935 115.506 81.9043 114.291 78.6201L111.254 70.4141Z" fill="currentColor"/>
</svg>
