<svg width="200" height="200" viewBox="0 0 200 200" fill="none" xmlns="http://www.w3.org/2000/svg">
<path fill-rule="evenodd" clip-rule="evenodd" d="M113.44 0C184.722 6.10648e-05 200 15.2779 200 86.5596V113.44C200 184.722 184.722 200 113.44 200H86.5596C15.2779 200 6.10494e-05 184.722 0 113.44V86.5596C6.10648e-05 15.2779 15.2779 6.10494e-05 86.5596 0H113.44ZM89.5166 22C33.9168 22 22 33.9168 22 89.5166V110.483C22 166.083 33.9168 178 89.5166 178H110.483C166.083 178 178 166.083 178 110.483V89.5166C178 33.9168 166.083 22 110.483 22H89.5166Z" fill="white"/>
<path d="M91.1652 45.2984C94.4505 36.7467 106.549 36.7467 109.835 45.2984L120.864 74.0075C121.91 76.7308 124.094 78.8615 126.842 79.8409L155.571 90.0804C164.428 93.2372 164.428 105.763 155.571 108.92L126.842 119.159C124.094 120.139 121.91 122.269 120.864 124.992L109.835 153.702C106.549 162.253 94.4505 162.253 91.1652 153.702L80.1358 124.992C79.0896 122.269 76.9063 120.139 74.1583 119.159L45.4289 108.92C36.5719 105.763 36.5719 93.2371 45.4289 90.0804L74.1583 79.8409C76.9063 78.8615 79.0896 76.7308 80.1358 74.0075L91.1652 45.2984Z" fill="white"/>
</svg>
