<svg width="23" height="18" viewBox="0 0 23 18" fill="none" xmlns="http://www.w3.org/2000/svg">
<path d="M22.5 3.97687V14.625C22.5 15.4859 22.1711 16.3142 21.5806 16.9405C20.99 17.5669 20.1824 17.9439 19.323 17.9944L19.125 18H3.375C2.51414 18 1.6858 17.6711 1.05946 17.0805C0.433117 16.49 0.056129 15.6824 0.00562513 14.823L0 14.625V3.97687L10.6256 11.061L10.7561 11.1352C10.9099 11.2104 11.0788 11.2494 11.25 11.2494C11.4212 11.2494 11.5901 11.2104 11.7439 11.1352L11.8744 11.061L22.5 3.97687Z" fill="white"/>
<path d="M19.1251 0C20.3401 0 21.4055 0.64125 21.9995 1.60538L11.2501 8.77162L0.500732 1.60538C0.782874 1.1473 1.17043 0.763313 1.6311 0.485426C2.09177 0.207538 2.61219 0.0438044 3.14898 0.00787497L3.37511 0H19.1251Z" fill="white"/>
</svg>
